<svg xmlns="http://www.w3.org/2000/svg" viewBox="0 0 900 650">
  <!-- Background -->
  <rect width="900" height="650" fill="#f8f9fa"/>
  
  <!-- Table: events -->
  <rect x="350" y="50" width="200" height="140" rx="5" fill="#e3f2fd" stroke="#1565c0" stroke-width="2"/>
  <text x="450" y="75" font-family="sans-serif" font-size="16" text-anchor="middle" font-weight="bold">events</text>
  <line x1="350" y1="85" x2="550" y2="85" stroke="#1565c0" stroke-width="2"/>
  <text x="360" y="105" font-family="sans-serif" font-size="12">id: UUID (PK)</text>
  <text x="360" y="125" font-family="sans-serif" font-size="12">event_name: VARCHAR</text>
  <text x="360" y="145" font-family="sans-serif" font-size="12">event_description: TEXT</text>
  <text x="360" y="165" font-family="sans-serif" font-size="12">creator_id: UUID (FK→auth.users)</text>
  <text x="360" y="185" font-family="sans-serif" font-size="12">other fields...</text>
  
  <!-- Table: event_roles -->
  <rect x="50" y="220" width="200" height="140" rx="5" fill="#e8f5e9" stroke="#2e7d32" stroke-width="2"/>
  <text x="150" y="245" font-family="sans-serif" font-size="16" text-anchor="middle" font-weight="bold">event_roles</text>
  <line x1="50" y1="255" x2="250" y2="255" stroke="#2e7d32" stroke-width="2"/>
  <text x="60" y="275" font-family="sans-serif" font-size="12">id: UUID (PK)</text>
  <text x="60" y="295" font-family="sans-serif" font-size="12">event_id: UUID (FK→events)</text>
  <text x="60" y="315" font-family="sans-serif" font-size="12">user_id: UUID (FK→auth.users)</text>
  <text x="60" y="335" font-family="sans-serif" font-size="12">role_type: VARCHAR</text>
  <text x="60" y="355" font-family="sans-serif" font-size="12">("host", "manager")</text>
  
  <!-- Table: event_rsvp -->
  <rect x="350" y="230" width="200" height="140" rx="5" fill="#fff3e0" stroke="#e65100" stroke-width="2"/>
  <text x="450" y="255" font-family="sans-serif" font-size="16" text-anchor="middle" font-weight="bold">event_rsvp</text>
  <line x1="350" y1="265" x2="550" y2="265" stroke="#e65100" stroke-width="2"/>
  <text x="360" y="285" font-family="sans-serif" font-size="12">id: UUID (PK)</text>
  <text x="360" y="305" font-family="sans-serif" font-size="12">event_id: UUID (FK→events)</text>
  <text x="360" y="325" font-family="sans-serif" font-size="12">user_id: UUID (FK→auth.users)</text>
  <text x="360" y="345" font-family="sans-serif" font-size="12">status: VARCHAR</text>
  <text x="360" y="365" font-family="sans-serif" font-size="12">("going", "waitlist", etc.)</text>
  
  <!-- Table: event_tags -->
  <rect x="650" y="100" width="200" height="80" rx="5" fill="#e0f7fa" stroke="#006064" stroke-width="2"/>
  <text x="750" y="125" font-family="sans-serif" font-size="16" text-anchor="middle" font-weight="bold">event_tags</text>
  <line x1="650" y1="135" x2="850" y2="135" stroke="#006064" stroke-width="2"/>
  <text x="660" y="155" font-family="sans-serif" font-size="12">id: UUID (PK)</text>
  <text x="660" y="175" font-family="sans-serif" font-size="12">name: VARCHAR (UNIQUE)</text>
  
  <!-- Table: events_to_tags -->
  <rect x="650" y="230" width="200" height="100" rx="5" fill="#e0f7fa" stroke="#006064" stroke-width="2"/>
  <text x="750" y="255" font-family="sans-serif" font-size="16" text-anchor="middle" font-weight="bold">events_to_tags</text>
  <line x1="650" y1="265" x2="850" y2="265" stroke="#006064" stroke-width="2"/>
  <text x="660" y="285" font-family="sans-serif" font-size="12">event_id: UUID (FK→events)</text>
  <text x="660" y="305" font-family="sans-serif" font-size="12">tag_id: UUID (FK→event_tags)</text>
  <text x="660" y="325" font-family="sans-serif" font-size="12">PRIMARY KEY (event_id, tag_id)</text>
  
  <!-- Table: event_media -->
  <rect x="50" y="400" width="200" height="140" rx="5" fill="#f3e5f5" stroke="#6a1b9a" stroke-width="2"/>
  <text x="150" y="425" font-family="sans-serif" font-size="16" text-anchor="middle" font-weight="bold">event_media</text>
  <line x1="50" y1="435" x2="250" y2="435" stroke="#6a1b9a" stroke-width="2"/>
  <text x="60" y="455" font-family="sans-serif" font-size="12">id: UUID (PK)</text>
  <text x="60" y="475" font-family="sans-serif" font-size="12">event_id: UUID (FK→events)</text>
  <text x="60" y="495" font-family="sans-serif" font-size="12">media_type: VARCHAR</text>
  <text x="60" y="515" font-family="sans-serif" font-size="12">url: TEXT</text>
  <text x="60" y="535" font-family="sans-serif" font-size="12">created_by: UUID (FK→auth.users)</text>
  
  <!-- Table: event_comments -->
  <rect x="350" y="400" width="200" height="120" rx="5" fill="#ffebee" stroke="#b71c1c" stroke-width="2"/>
  <text x="450" y="425" font-family="sans-serif" font-size="16" text-anchor="middle" font-weight="bold">event_comments</text>
  <line x1="350" y1="435" x2="550" y2="435" stroke="#b71c1c" stroke-width="2"/>
  <text x="360" y="455" font-family="sans-serif" font-size="12">id: UUID (PK)</text>
  <text x="360" y="475" font-family="sans-serif" font-size="12">event_id: UUID (FK→events)</text>
  <text x="360" y="495" font-family="sans-serif" font-size="12">user_id: UUID (FK→auth.users)</text>
  <text x="360" y="515" font-family="sans-serif" font-size="12">comment: TEXT</text>
  
  <!-- Table: event_recurrence -->
  <rect x="650" y="400" width="200" height="140" rx="5" fill="#fffde7" stroke="#f57f17" stroke-width="2"/>
  <text x="750" y="425" font-family="sans-serif" font-size="16" text-anchor="middle" font-weight="bold">event_recurrence</text>
  <line x1="650" y1="435" x2="850" y2="435" stroke="#f57f17" stroke-width="2"/>
  <text x="660" y="455" font-family="sans-serif" font-size="12">id: UUID (PK)</text>
  <text x="660" y="475" font-family="sans-serif" font-size="12">event_id: UUID (FK→events)</text>
  <text x="660" y="495" font-family="sans-serif" font-size="12">frequency: VARCHAR</text>
  <text x="660" y="515" font-family="sans-serif" font-size="12">interval_count: INT</text>
  <text x="660" y="535" font-family="sans-serif" font-size="12">other fields...</text>
  
  <!-- Table: auth.users -->
  <rect x="350" y="550" width="200" height="80" rx="5" fill="#efebe9" stroke="#4e342e" stroke-width="2"/>
  <text x="450" y="575" font-family="sans-serif" font-size="16" text-anchor="middle" font-weight="bold">auth.users</text>
  <line x1="350" y1="585" x2="550" y2="585" stroke="#4e342e" stroke-width="2"/>
  <text x="360" y="605" font-family="sans-serif" font-size="12">id: UUID (PK)</text>
  <text x="360" y="625" font-family="sans-serif" font-size="12">Supabase user fields...</text>
  
  <!-- Relationship lines -->
  <!-- events -> auth.users (creator) -->
  <line x1="450" y1="190" x2="450" y2="550" stroke="#4e342e" stroke-width="2" stroke-dasharray="5,5"/>
  <polygon points="450,540 445,550 455,550" fill="#4e342e"/>
  
  <!-- event_roles -> events -->
  <line x1="250" y1="290" x2="350" y2="120" stroke="#2e7d32" stroke-width="2" stroke-dasharray="5,5"/>
  <polygon points="342,122 350,120 348,128" fill="#2e7d32"/>
  
  <!-- event_roles -> auth.users -->
  <line x1="150" y1="360" x2="350" y2="610" stroke="#2e7d32" stroke-width="2" stroke-dasharray="5,5"/>
  <polygon points="342,607 350,610 342,613" fill="#2e7d32"/>
  
  <!-- event_rsvp -> events -->
  <line x1="450" y1="230" x2="450" y2="190" stroke="#e65100" stroke-width="2" stroke-dasharray="5,5"/>
  <polygon points="445,200 450,190 455,200" fill="#e65100"/>
  
  <!-- event_rsvp -> auth.users -->
  <line x1="450" y1="370" x2="450" y2="550" stroke="#e65100" stroke-width="2" stroke-dasharray="5,5"/>
  <polygon points="450,540 445,550 455,550" fill="#e65100"/>
  
  <!-- events_to_tags -> events -->
  <line x1="650" y1="290" x2="550" y2="120" stroke="#006064" stroke-width="2" stroke-dasharray="5,5"/>
  <polygon points="557,123 550,120 553,113" fill="#006064"/>
  
  <!-- events_to_tags -> event_tags -->
  <line x1="750" y1="230" x2="750" y2="180" stroke="#006064" stroke-width="2" stroke-dasharray="5,5"/>
  <polygon points="745,190 750,180 755,190" fill="#006064"/>
  
  <!-- event_media -> events -->
  <line x1="150" y1="400" x2="350" y2="120" stroke="#6a1b9a" stroke-width="2" stroke-dasharray="5,5"/>
  <polygon points="343,126 350,120 356,126" fill="#6a1b9a"/>
  
  <!-- event_comments -> events -->
  <line x1="450" y1="400" x2="450" y2="190" stroke="#b71c1c" stroke-width="2" stroke-dasharray="5,5"/>
  <polygon points="445,200 450,190 455,200" fill="#b71c1c"/>
  
  <!-- event_comments -> auth.users -->
  <line x1="450" y1="520" x2="450" y2="550" stroke="#b71c1c" stroke-width="2" stroke-dasharray="5,5"/>
  <polygon points="450,540 445,550 455,550" fill="#b71c1c"/>
  
  <!-- event_recurrence -> events -->
  <line x1="750" y1="400" x2="550" y2="120" stroke="#f57f17" stroke-width="2" stroke-dasharray="5,5"/>
  <polygon points="557,123 550,120 553,113" fill="#f57f17"/>
  
  <!-- API Exposure Legend -->
  <rect x="640" y="570" width="220" height="70" rx="5" fill="#ffffff" stroke="#212121" stroke-width="1"/>
  <text x="750" y="585" font-family="sans-serif" font-size="14" text-anchor="middle" font-weight="bold">API Exposure</text>
  
  <circle cx="660" y="605" r="8" fill="#4CAF50"/>
  <text x="675" y="609" font-family="sans-serif" font-size="12" dx="10">Client-side safe</text>
  
  <circle cx="660" y="630" r="8" fill="#F44336"/>
  <text x="675" y="634" font-family="sans-serif" font-size="12" dx="10">Backend only</text>
  
  <!-- API Exposure Indicators -->
  <circle cx="560" y="120" r="8" fill="#F44336"/> <!-- events -->
  <circle cx="260" y="290" r="8" fill="#F44336"/> <!-- event_roles -->
  <circle cx="560" y="290" r="8" fill="#4CAF50"/> <!-- event_rsvp (limited) -->
  <circle cx="860" y="140" r="8" fill="#4CAF50"/> <!-- event_tags -->
  <circle cx="860" y="290" r="8" fill="#F44336"/> <!-- events_to_tags -->
  <circle cx="260" y="455" r="8" fill="#4CAF50"/> <!-- event_media (limited) -->
  <circle cx="560" y="455" r="8" fill="#4CAF50"/> <!-- event_comments (limited) -->
  <circle cx="860" y="455" r="8" fill="#F44336"/> <!-- event_recurrence -->
</svg>
